# xmcd CD database file
#
# Track frame offsets:
#	150
#	12255
#	23354
#	36763
#	52964
#	64214
#	77339
#	89099
#	103087
#	114950
#	124984
#	141616
#	155789
#	166776
#	181251
#	197115
#	209699
#	221849
#	238500
#
# Disc length: 3392 seconds
#
# Revision: 3
# Processed by: cddbd v1.5.2PL0 Copyright (c) Steve Scherf et al.
# Submitted via: CDex 1.70beta2
#
DISCID=0d0d3e13
DTITLE=Various Artist - Something Swingin' 1.1
DYEAR=2003
DGENRE=Jazz
TTITLE0=Dean Martin - Everybody Loves Somebody
TTITLE1=Perry Como - Catch A Falling Star
TTITLE2=B.J. Thomas - Raindrops Keep Falling On My Head
TTITLE3=Gene Pitney - Something's Gotten Hold Of My Heart
TTITLE4=Andy Williams - Music To Watch Girls By
TTITLE5=Dionne Warwick - I'll Never Fall In Love Again
TTITLE6=Fifth Dimension - Up, Up And Away
TTITLE7=Bert Kaempfert Orchestra - A Swingin' Safari
TTITLE8=Doris Day - Move Over Darling
TTITLE9=Pat Boone - Love Letters In The Sand
TTITLE10=Mel Torme - Blue Moon
TTITLE11=Billy Eckstine - No One But You
TTITLE12=Tony Bennett - The Lady Is A Tramp
TTITLE13=Jackie DeShannon - What The World Needs Now Is Love
TTITLE14=Dusty Springfield - The Look Of Love
TTITLE15=Julie London - Cry Me A River
TTITLE16=Henry Mancini Orchestra - Moon River (instr)
TTITLE17=Scott Walker - Joanna
TTITLE18=Charles Trenet - Beyond The Sea (La Mer)
EXTD=YEAR: 2003
EXTT0=
EXTT1=
EXTT2=
EXTT3=
EXTT4=
EXTT5=
EXTT6=
EXTT7=
EXTT8=
EXTT9=
EXTT10=
EXTT11=
EXTT12=
EXTT13=
EXTT14=
EXTT15=
EXTT16=
EXTT17=
EXTT18=
PLAYORDER=
